HIERARCHY
ROOT Hips
{
	OFFSET 0.00000 0.00000 0.00000
	CHANNELS 6 Xposition Yposition Zposition Zrotation Yrotation Xrotation 
	JOINT LHipJoint
	{
		OFFSET 0 0 0
		CHANNELS 3 Zrotation Yrotation Xrotation
		JOINT LeftHip
		{
			OFFSET 1.92384 -1.64427 0.83032
			CHANNELS 3 Zrotation Yrotation Xrotation
			JOINT LeftKnee
			{
				OFFSET 2.52872 -6.94761 0.00000
				CHANNELS 3 Zrotation Yrotation Xrotation
				JOINT LeftAnkle
				{
					OFFSET 2.51827 -6.91890 0.00000
					CHANNELS 3 Zrotation Yrotation Xrotation
					JOINT LeftToe
					{
						OFFSET 0.22757 -0.62524 2.06528
						CHANNELS 3 Zrotation Yrotation Xrotation
						End Site
						{
							OFFSET 0.00000 -0.00000 1.08218
						}
					}
				}
			}
		}
	}
	JOINT RHipJoint
	{
		OFFSET 0 0 0
		CHANNELS 3 Zrotation Yrotation Xrotation
		JOINT RightHip
		{
			OFFSET -2.09517 -1.64427 0.83032
			CHANNELS 3 Zrotation Yrotation Xrotation
			JOINT RightKnee
			{
				OFFSET -2.55173 -7.01082 0.00000
				CHANNELS 3 Zrotation Yrotation Xrotation
				JOINT RightAnkle
				{
					OFFSET -2.50265 -6.87598 0.00000
					CHANNELS 3 Zrotation Yrotation Xrotation
					JOINT RightToe
					{
						OFFSET -0.22612 -0.62126 1.98677
						CHANNELS 3 Zrotation Yrotation Xrotation
						End Site
						{
							OFFSET -0.00000 -0.00000 1.04433
						}
					}
				}
			}
		}
	}
	JOINT lowerback
	{
		OFFSET 0 0 0
		CHANNELS 3 Zrotation Yrotation Xrotation
		JOINT Chest
		{
			OFFSET 0.02839 1.68926 0.31690
			CHANNELS 3 Zrotation Yrotation Xrotation
			JOINT Chest2
			{
				OFFSET -0.01522 1.70183 0.21192
				CHANNELS 3 Zrotation Yrotation Xrotation
				JOINT lowerneck
				{
					OFFSET 0 0 0
					CHANNELS 3 Zrotation Yrotation Xrotation
					JOINT Neck
					{
						OFFSET -0.04523 1.88988 0.10630
						CHANNELS 3 Zrotation Yrotation Xrotation
						JOINT Head
						{
							OFFSET 0.05172 1.78070 -0.56858
							CHANNELS 3 Zrotation Yrotation Xrotation
							End Site
							{
								OFFSET 0.01532 1.90392 -0.20434
							}
						}
					}
				}
				JOINT LeftCollar
				{
					OFFSET 0 0 0
					CHANNELS 3 Zrotation Yrotation Xrotation
					JOINT LeftShoulder
					{
						OFFSET 3.25522 0.75486 0.22086
CHANNELS 3 Zrotation Xrotation Yrotation
						JOINT LeftElbow
						{
OFFSET 0 -4.856450 0.000000
CHANNELS 3 Zrotation Xrotation Yrotation
							JOINT LeftWrist
							{
OFFSET 0 -2.798740 0.000000
CHANNELS 3 Zrotation Xrotation Yrotation
								JOINT lhand
								{
									OFFSET 0 0 0
CHANNELS 3 Zrotation Xrotation Yrotation
									JOINT LFingers
									{
OFFSET 0 -0.573400 0.000000
CHANNELS 3 Zrotation Xrotation Yrotation
										End Site
										{
OFFSET 0 -0.462290 0.000000
										}
									}
								}
								JOINT LThumb
								{
OFFSET 0 0.000000 0.000000
CHANNELS 3 Zrotation Xrotation Yrotation
									End Site
									{
OFFSET 0 -0.469350 0.469350
									}
								}
							}
						}
					}
				}
				JOINT RightCollar
				{
					OFFSET 0 0 0
					CHANNELS 3 Zrotation Yrotation Xrotation
					JOINT RightShoulder
					{
						OFFSET -3.29079 0.52751 0.36356
CHANNELS 3 Zrotation Xrotation Yrotation
						JOINT RightElbow
						{
OFFSET 0 -4.670180 0.000000
CHANNELS 3 Zrotation Xrotation Yrotation
							JOINT RightWrist
							{
OFFSET 0 -2.655340 0.000000
CHANNELS 3 Zrotation Xrotation Yrotation
								JOINT rhand
								{
									OFFSET 0 0 0
CHANNELS 3 Zrotation Xrotation Yrotation
									JOINT RFingers
									{
OFFSET 0 -0.594070 0.000000
CHANNELS 3 Zrotation Xrotation Yrotation
										End Site
										{
OFFSET 0 -0.478950 0.000000
										}
									}
								}
								JOINT RThumb
								{
OFFSET 0 0.000000 0.000000
CHANNELS 3 Zrotation Xrotation Yrotation
									End Site
									{
OFFSET 0 -0.486270 0.486270
									}
								}
							}
						}
					}
				}
			}
		}
	}
}
MOTION
Frames: 10
Frame Time: 0.008333333333333333
4.126194 15.700032 15.941810 3.471958 -5.077337 26.027256 0.000000 0.000000 0.000000 -13.700137 -18.257313 -65.341792 5.944647 14.374502 44.759186 0.117731 -2.081879 -6.093793 1.515863 -7.774976 -22.032737 0.000000 0.000000 0.000000 16.042069 15.897631 -8.673287 -3.220397 -11.043564 32.426847 -4.699893 -7.104642 -43.741666 -0.780794 5.641244 -15.746941 -6.948824 2.600189 -15.086180 -4.994678 3.804783 -15.925685 -1.298147 2.308798 -9.046533 -0.572065 -1.398910 -19.065922 3.029133 -3.036747 35.783697 0.837776 -0.884860 15.994774 0.000000 0.000000 0.000000 57.978773 36.203500 -119.680024 102.712929 -59.380414 70.986786 53.050891 41.156628 -20.740013 0.000000 0.000000 0.000000 -7.125000 0.000000 0.000000 30.058846 59.580482 -11.321991 0.000000 0.000000 0.000000 -41.587123 53.563747 114.235671 -69.735136 -58.389981 -42.545028 -65.950868 64.642811 23.301197 0.000000 0.000000 0.000000 7.125000 0.000000 0.000000 -60.999836 66.696327 37.246686
4.112483 15.710652 15.887615 3.335372 -5.451477 24.775240 0.000000 0.000000 0.000000 -13.507553 -18.405263 -64.014571 5.915215 14.345648 44.640391 0.064515 -0.716541 -4.595057 1.299869 -7.223085 -20.378024 0.000000 0.000000 0.000000 16.457022 15.792065 -7.585650 -3.218718 -11.040977 32.418156 -4.636366 -7.347124 -43.573582 -0.690404 5.311854 -14.800112 -5.892154 2.374438 -15.215818 -4.707427 3.451828 -15.473345 -1.536361 2.023117 -8.344707 0.520864 -0.706712 -16.754223 2.137475 -1.983865 34.755606 0.454879 -0.458612 14.894102 0.000000 0.000000 0.000000 57.755584 37.213383 -118.156188 103.066276 -59.344974 71.290811 52.134737 39.668871 -19.990257 0.000000 0.000000 0.000000 -7.125000 0.000000 0.000000 28.230191 58.323492 -9.697160 0.000000 0.000000 0.000000 -42.189800 52.158550 113.601584 -71.929082 -58.729392 -44.416890 -64.557162 61.208406 22.017250 0.000000 0.000000 0.000000 7.125000 0.000000 0.000000 -54.563845 65.000983 30.346896
4.117052 15.719587 15.840443 2.848988 -7.552854 24.115892 0.000000 0.000000 0.000000 -13.329864 -17.023718 -63.756645 6.021775 14.449411 45.069174 0.046073 0.578199 -4.311102 1.220618 -7.007742 -19.738365 0.000000 0.000000 0.000000 16.095512 16.412360 -7.578683 -3.309911 -11.180561 32.891261 -4.625114 -6.485407 -43.163624 -0.731292 5.463766 -15.236158 -5.266041 2.722670 -15.360756 -4.261297 3.862171 -15.492562 -1.359265 2.186885 -8.268997 1.636382 0.027555 -15.046826 1.165508 -0.848212 34.517920 0.051210 0.024626 14.366597 0.000000 0.000000 0.000000 56.952507 36.590109 -117.901287 101.993129 -59.449433 70.367115 51.992295 39.440668 -19.932538 0.000000 0.000000 0.000000 -7.125000 0.000000 0.000000 27.990245 58.203743 -9.523962 0.000000 0.000000 0.000000 -43.354487 51.716421 115.319901 -73.132336 -58.897158 -45.446240 -66.888101 65.603666 23.392841 0.000000 0.000000 0.000000 7.125000 0.000000 0.000000 -64.051821 66.959740 40.048130
4.116096 15.735386 15.831693 2.507075 -9.804060 23.392517 0.000000 0.000000 0.000000 -13.330897 -15.478428 -63.212424 6.145144 14.567529 45.561519 0.042158 1.671488 -4.870085 1.199078 -6.947717 -19.560652 0.000000 0.000000 0.000000 15.726917 17.398953 -7.012072 -3.333829 -11.216794 33.014673 -4.590581 -6.016792 -42.822958 -0.749593 5.530199 -15.427051 -4.598621 2.970812 -15.324424 -4.248554 4.105536 -15.376411 -1.682350 2.231497 -8.093566 3.067502 0.842703 -14.184608 0.907279 0.045267 34.381382 -0.162704 0.555039 14.120639 0.000000 0.000000 0.000000 56.946246 35.936586 -117.959412 101.514254 -59.493075 69.954653 52.499921 39.252867 -19.864558 0.000000 0.000000 0.000000 -7.125000 0.000000 0.000000 28.693192 58.278870 -9.842750 0.000000 0.000000 0.000000 -43.520996 51.075842 116.267649 -73.728623 -58.975543 -45.957018 -64.961332 61.511033 22.408175 0.000000 0.000000 0.000000 7.125000 0.000000 0.000000 -56.378529 65.538747 32.300164
4.099329 15.763734 15.864537 2.487567 -12.074396 22.718857 0.000000 0.000000 0.000000 -14.021868 -13.425898 -62.516784 6.221482 14.639579 45.864326 0.058334 1.927894 -5.697717 1.197999 -6.944778 -19.551820 0.000000 0.000000 0.000000 15.204926 18.537776 -5.996419 -3.250980 -11.090766 32.586484 -4.516557 -6.020633 -42.501667 -0.741009 5.499028 -15.337679 -4.555077 3.132081 -15.225856 -4.294427 4.283745 -15.268786 -1.738238 2.300893 -8.014402 4.089420 1.506009 -13.894972 0.537362 0.863541 34.672531 -0.361655 0.991889 14.213375 0.000000 0.000000 0.000000 57.048299 35.257592 -118.355687 101.451078 -59.498657 69.900164 52.627853 38.864475 -19.857630 0.000000 0.000000 0.000000 -7.125000 0.000000 0.000000 28.876913 58.311199 -9.935299 0.000000 0.000000 0.000000 -43.201450 51.559053 115.452077 -74.092847 -59.021969 -46.269284 -64.522726 60.699143 22.095855 0.000000 0.000000 0.000000 7.125000 0.000000 0.000000 -54.617666 65.077513 30.475928
4.056131 15.772408 15.887358 2.639131 -12.996045 22.457005 0.000000 0.000000 0.000000 -14.414290 -12.535206 -62.289926 6.266333 14.681546 46.041293 0.064221 1.989288 -5.953096 1.218598 -7.002206 -19.721826 0.000000 0.000000 0.000000 14.944979 18.784392 -5.690851 -3.238865 -11.072073 32.523275 -4.508000 -5.868151 -42.402090 -0.773983 5.617387 -15.678163 -4.633977 2.946223 -15.022894 -4.372086 4.019267 -15.147526 -1.801063 2.161979 -7.981884 4.611138 1.949093 -13.938360 0.152397 1.498695 34.753179 -0.507421 1.279123 14.286185 0.000000 0.000000 0.000000 57.261383 34.423232 -119.368135 101.425488 -59.500975 69.878198 53.313200 39.573563 -20.472071 0.000000 0.000000 0.000000 -7.125000 0.000000 0.000000 30.291272 59.324392 -11.231237 0.000000 0.000000 0.000000 -42.671340 51.669715 114.292661 -73.918637 -58.999900 -46.119924 -64.351470 59.956841 21.545193 0.000000 0.000000 0.000000 7.125000 0.000000 0.000000 -53.180474 64.411839 28.684758
3.999451 15.757412 15.919541 2.587050 -13.287993 22.357132 0.000000 0.000000 0.000000 -13.744841 -12.994951 -62.250854 6.431969 14.834260 46.691675 0.040226 3.015349 -6.056707 1.219235 -7.003884 -19.726952 0.000000 0.000000 0.000000 15.069158 18.391120 -5.629090 -3.246537 -11.083809 32.563091 -4.535584 -5.479961 -42.368579 -0.837391 5.837276 -16.313120 -4.720496 2.882968 -15.054846 -4.233087 3.959277 -14.949908 -1.592646 2.144463 -7.750795 4.346858 2.015760 -14.100365 -0.126906 1.769117 35.145371 -0.529458 1.324188 14.506987 0.000000 0.000000 0.000000 57.047435 33.877117 -119.663859 101.339052 -59.508570 69.803671 54.342375 40.656013 -20.760678 0.000000 0.000000 0.000000 -7.125000 0.000000 0.000000 32.112451 60.035285 -12.548099 0.000000 0.000000 0.000000 -42.803232 51.230866 114.431123 -73.688318 -58.970368 -45.922529 -64.487567 60.263198 21.659564 0.000000 0.000000 0.000000 7.125000 0.000000 0.000000 -53.733514 64.582545 29.268149
3.939754 15.727225 15.979403 2.605689 -13.304108 22.096454 0.000000 0.000000 0.000000 -13.433203 -13.340617 -62.371395 6.728193 15.098689 47.838762 0.017934 3.689322 -6.007601 1.049267 -6.513826 -18.282771 0.000000 0.000000 0.000000 15.210055 17.345169 -5.518722 -3.277980 -11.131989 32.726328 -4.594446 -4.646280 -42.306428 -0.916127 6.098514 -17.070571 -4.611929 2.943255 -15.066671 -4.226936 4.033582 -14.902901 -1.635391 2.171761 -7.680605 4.133903 1.998890 -14.017938 -0.093675 1.803867 35.959019 -0.471373 1.323066 14.866320 0.000000 0.000000 0.000000 57.058421 34.373974 -119.102415 101.667413 -59.479315 70.086647 54.543469 41.086885 -20.678711 0.000000 0.000000 0.000000 -7.125000 0.000000 0.000000 32.376639 59.998236 -12.635756 0.000000 0.000000 0.000000 -42.819115 50.755397 115.038228 -73.465183 -58.941319 -45.731326 -64.797526 61.171490 22.066302 0.000000 0.000000 0.000000 7.125000 0.000000 0.000000 -55.290493 65.123707 31.012022
3.891340 15.707169 16.032911 3.036658 -13.568587 21.891385 0.000000 0.000000 0.000000 -14.131946 -12.806544 -62.485040 6.877808 15.228126 48.410532 0.033994 3.272471 -6.110362 0.963763 -6.250671 -17.513399 0.000000 0.000000 0.000000 14.850264 16.943750 -5.525023 -3.355242 -11.249022 33.124545 -4.678092 -4.280175 -42.537757 -0.926452 6.132055 -17.167949 -4.738831 2.947724 -15.293002 -4.233523 4.060261 -14.927191 -1.558449 2.193861 -7.599412 3.999583 2.073866 -13.934755 -0.150325 1.986937 36.678422 -0.439378 1.380971 15.195416 0.000000 0.000000 0.000000 57.006115 34.938127 -118.398347 102.189042 -59.431063 70.535845 54.131974 40.691754 -20.391736 0.000000 0.000000 0.000000 -7.125000 0.000000 0.000000 31.512587 59.492677 -11.870011 0.000000 0.000000 0.000000 -42.930596 50.385959 115.529071 -73.369124 -58.928696 -45.649061 -65.028428 61.804903 22.393458 0.000000 0.000000 0.000000 7.125000 0.000000 0.000000 -56.533455 65.540906 32.416674
3.854536 15.693787 16.046697 3.336715 -13.522537 21.736109 0.000000 0.000000 0.000000 -14.879686 -12.099641 -62.564217 6.897749 15.245164 48.486570 0.058587 2.477572 -6.172360 1.000624 -6.365512 -17.848696 0.000000 0.000000 0.000000 14.722536 16.717340 -5.492786 -3.403759 -11.321703 33.372523 -4.721754 -4.257965 -42.720461 -0.935354 6.160390 -17.250614 -4.221745 2.828556 -15.256246 -4.192370 3.847479 -14.996657 -1.820651 2.039774 -7.655149 3.912508 2.258253 -13.727325 -0.525058 2.447576 37.019694 -0.506311 1.512801 15.328496 0.000000 0.000000 0.000000 57.341820 35.136599 -118.840631 102.394833 -59.411466 70.713061 54.265782 40.904794 -20.629350 0.000000 0.000000 0.000000 -7.125000 0.000000 0.000000 31.894252 59.841896 -12.302673 0.000000 0.000000 0.000000 -42.933439 50.098103 115.523942 -73.502604 -58.946224 -45.763426 -64.716960 61.256758 22.125654 0.000000 0.000000 0.000000 7.125000 0.000000 0.000000 -55.186502 65.165697 30.987320
